# xmcd
#
# Track frame offsets: 
#        150
#        19671
#        40672
#        56034
#        75059
#        89603
#        106377
#        124698
#        141442
#        164765
#        174698
#        189406
#        204254
#
# Disc length: 2886 seconds
#
# Revision: 0
# Processed by: cddbd v1.5PL3 Copyright (c) Steve Scherf et al.
# Submitted via: ExactAudioCopy v0.95a4
#
DISCID=aa0b440d
DTITLE=Harold East - Rocky Mount Swing
DYEAR=1999
DGENRE=Bluegrass
TTITLE0=Rocky Mount Swing
TTITLE1=Somewhere Over the Rainbow
TTITLE2=Blue River
TTITLE3=Rank Stranger
TTITLE4=Sweet Georgia Brown
TTITLE5=Not Afraid
TTITLE6=lady Down on Love
TTITLE7=Tennessee Moon
TTITLE8=What a Friend We have in Jesus
TTITLE9=Hangin Around
TTITLE10=Flower Dew Waltz
TTITLE11=Dear Companion
TTITLE12=Leaving on a Jet Plane
EXTD=
EXTT0=
EXTT1=
EXTT2=
EXTT3=
EXTT4=
EXTT5=
EXTT6=
EXTT7=
EXTT8=
EXTT9=
EXTT10=
EXTT11=
EXTT12=
PLAYORDER=
